<svg width="95" height="44" viewBox="0 0 95 44" fill="none" xmlns="http://www.w3.org/2000/svg">
<path fill-rule="evenodd" clip-rule="evenodd" d="M14.0073 40.1983L19.7116 25.9508L26.0814 40.1983H23.8948L21.8983 34.4993C21.2961 34.151 19.3313 34.0054 16.289 36.209L14.5302 40.1983H14.0073ZM19.1887 28.0879L16.8595 34.8317C17.9699 33.464 20.0475 32.7421 20.9475 32.5521L19.1887 28.0879Z" fill="#092C2F"/>
<path fill-rule="evenodd" clip-rule="evenodd" d="M69.6243 40.1983L75.3286 25.9508L81.6984 40.1983H79.5117L77.5152 34.4993C76.9131 34.151 74.9483 34.0054 71.906 36.209L70.1472 40.1983H69.6243ZM74.8057 28.0879L72.4764 34.8317C73.5868 33.464 75.6645 32.7421 76.5645 32.5521L74.8057 28.0879Z" fill="#092C2F"/>
<path d="M26.9371 26.0457V39.9134H28.4582V26.7581C29.9952 26.7636 33.0597 27.4267 33.0217 30.0351C32.9836 32.6434 30.4072 33.4965 29.1237 33.5969V34.0719H30.6449L34.1625 40.2458H36.0639L32.0234 33.5969C32.8315 33.5653 34.5238 32.8656 34.828 30.32C34.5903 26.8056 32.1977 26.2357 31.1202 26.0457H26.9371Z" fill="#092C2F"/>
<path d="M47.6627 26.0457V40.1983H55.8389V39.6284H49.0888V33.5495H53.9374V32.5996H49.0888V27.0906H54.6029V26.0457H47.6627Z" fill="#092C2F"/>
<path d="M41.388 40.1983H39.3915V26.8056H34.7329V25.9508H46.3317V26.8056H41.388V40.1983Z" fill="#092C2F"/>
<path d="M58.9762 39.6284H65.1559V40.1983H56.9797V26.0457H58.9762V39.6284Z" fill="#092C2F"/>
<path d="M66.2967 26.0457H68.2933V40.1983H66.2967V26.0457Z" fill="#092C2F"/>
<path fill-rule="evenodd" clip-rule="evenodd" d="M50.3247 23.1012L56.029 8.85367L62.3988 23.1012H60.2122L58.2157 17.4022C57.6135 17.0539 55.6487 16.9083 52.6064 19.1119L50.8476 23.1012H50.3247ZM55.5061 10.9908L53.1769 17.7347C54.2873 16.3669 56.3649 15.645 57.2649 15.455L55.5061 10.9908Z" fill="#092C2F"/>
<path d="M29.8608 20.6382V21.8948C30.1091 22.1018 31.5783 22.7202 32.2819 23.0036C35.51 23.4767 37.5587 22.1166 38.1795 21.3774C39.7687 18.3911 37.7648 16.674 36.1929 15.8335C34.3305 14.8377 30.674 13.9338 30.6988 12.1006C30.7298 9.80912 31.8163 9.2436 34.0822 9.18084C35.8949 9.13063 37.569 10.589 38.1795 11.3245V9.95697C35.9197 8.86298 34.2576 8.72223 33.4303 8.88515C30.4547 9.47109 29.6662 11.1808 29.5504 12.1006C29.409 13.223 30.4816 16.0183 33.6166 16.8314C36.1246 17.4819 37.0827 18.9011 37.2483 19.5294C37.5711 22.3383 35.1132 22.5694 34.3305 22.7079C33.4495 22.8638 30.7506 21.5991 29.8608 20.6382Z" fill="#092C2F"/>
<path d="M10.1094 8.85367V22.7213H11.6305V9.56605C13.1675 9.57153 16.232 10.2346 16.194 12.843C16.1559 15.4514 13.5795 16.3044 12.296 16.4049V16.8798H13.8172L17.3348 23.0537H19.2363L15.1957 16.4049C16.0038 16.3732 17.6961 15.6735 18.0003 13.1279C17.7626 9.61354 15.37 9.04364 14.2925 8.85367H10.1094Z" fill="#092C2F"/>
<path d="M76.3743 8.85367V22.7213H77.8955V9.56605C79.4325 9.57153 82.497 10.2346 82.4589 12.843C82.4209 15.4514 79.8445 16.3044 78.561 16.4049V16.8798H80.0821L83.5998 23.0537H85.5012L81.4607 16.4049C82.2688 16.3732 83.9611 15.6735 84.2653 13.1279C84.0276 9.61354 81.635 9.04364 80.5575 8.85367H76.3743Z" fill="#092C2F"/>
<path d="M20.3771 8.85367V23.0063H28.5533V22.4364H21.8032V16.3574H26.6519V15.4076H21.8032V9.89849H27.3174V8.85367H20.3771Z" fill="#092C2F"/>
<path d="M46.6169 23.1012H44.6204V9.70852H39.9619V8.85367H51.5606V9.70852H46.6169V23.1012Z" fill="#092C2F"/>
<path d="M63.5397 19.4646V9.04364H65.2427V19.4646C65.5975 20.5225 66.7158 22.2877 69.2022 22.2119C71.6886 22.1362 72.4947 20.4593 72.8211 19.4646V9.04364H73.3321V19.4646C72.9914 20.4751 72.0633 22.6856 69.2022 23.0646C66.3411 23.4435 64.079 20.7909 63.5397 19.4646Z" fill="#092C2F"/>
<path d="M26.0814 4.19946L21.8032 7.14396L22.2786 7.85634L26.4142 5.86168L26.0814 4.19946Z" fill="#092C2F"/>
</svg>
