<svg width="60" height="60" viewBox="0 0 60 60" fill="none" xmlns="http://www.w3.org/2000/svg">
<rect width="60" height="60" rx="30" fill="#142D48"/>
<path d="M35.333 35.3334C35.333 33.8601 31.1543 32.6667 25.9997 32.6667M35.333 35.3334C35.333 36.8067 31.1543 38.0001 25.9997 38.0001C20.845 38.0001 16.6663 36.8067 16.6663 35.3334M35.333 35.3334V41.9161C35.333 43.4347 31.1543 44.6667 25.9997 44.6667C20.845 44.6667 16.6663 43.4361 16.6663 41.9161V35.3334M35.333 35.3334C40.4317 35.3334 44.6663 34.0174 44.6663 32.6667V19.3334M25.9997 32.6667C20.845 32.6667 16.6663 33.8601 16.6663 35.3334M25.9997 32.6667C20.109 32.6667 15.333 31.3507 15.333 30.0001V23.3334M25.9997 20.6667C20.109 20.6667 15.333 21.8601 15.333 23.3334M15.333 23.3334C15.333 24.8067 20.109 26.0001 25.9997 26.0001C25.9997 27.3507 30.337 28.6667 35.4357 28.6667C40.5343 28.6667 44.6663 27.3507 44.6663 26.0001M44.6663 19.3334C44.6663 17.8601 40.533 16.6667 35.4357 16.6667C30.3383 16.6667 26.205 17.8601 26.205 19.3334M44.6663 19.3334C44.6663 20.8067 40.533 22.0001 35.4357 22.0001C30.3383 22.0001 26.205 20.8067 26.205 19.3334M26.205 19.3334V32.8881" stroke="white" stroke-width="2"/>
</svg>
