<svg width="60" height="60" viewBox="0 0 60 60" fill="none" xmlns="http://www.w3.org/2000/svg">
<rect width="60" height="60" rx="30" fill="#142D48"/>
<path d="M27.7337 24.2667C27.6101 24.3887 27.5121 24.534 27.4451 24.6942C27.3782 24.8545 27.3437 25.0264 27.3437 25.2C27.3437 25.3736 27.3782 25.5455 27.4451 25.7058C27.5121 25.866 27.6101 26.0113 27.7337 26.1333L30.267 28.6667H18.0003C17.267 28.6667 16.667 29.2667 16.667 30C16.667 30.7333 17.267 31.3333 18.0003 31.3333H30.267L27.7337 33.8667C27.6101 33.9887 27.5121 34.134 27.4451 34.2942C27.3782 34.4545 27.3437 34.6264 27.3437 34.8C27.3437 34.9736 27.3782 35.1455 27.4451 35.3058C27.5121 35.466 27.6101 35.6113 27.7337 35.7333C28.2537 36.2533 29.0803 36.2533 29.6003 35.7333L34.387 30.9467C34.5106 30.8233 34.6087 30.6768 34.6756 30.5155C34.7425 30.3542 34.7769 30.1813 34.7769 30.0067C34.7769 29.832 34.7425 29.6591 34.6756 29.4978C34.6087 29.3365 34.5106 29.19 34.387 29.0667L29.6003 24.2667C29.4783 24.1431 29.333 24.0451 29.1727 23.9781C29.0125 23.9112 28.8406 23.8767 28.667 23.8767C28.4934 23.8767 28.3215 23.9112 28.1612 23.9781C28.001 24.0451 27.8557 24.1431 27.7337 24.2667ZM40.667 39.3333H31.3337C30.6003 39.3333 30.0003 39.9333 30.0003 40.6667C30.0003 41.4 30.6003 42 31.3337 42H40.667C42.1337 42 43.3337 40.8 43.3337 39.3333V20.6667C43.3337 19.2 42.1337 18 40.667 18H31.3337C30.6003 18 30.0003 18.6 30.0003 19.3333C30.0003 20.0667 30.6003 20.6667 31.3337 20.6667H40.667V39.3333Z" fill="white"/>
</svg>
