<svg width="60" height="60" viewBox="0 0 60 60" fill="none" xmlns="http://www.w3.org/2000/svg">
<g clip-path="url(#clip0_640_362)">
<path d="M60 30C60 13.4315 46.5685 0 30 0C13.4315 0 0 13.4315 0 30C0 46.5685 13.4315 60 30 60C46.5685 60 60 46.5685 60 30Z" fill="#173537"/>
<path d="M24 27C24 28.5913 24.6321 30.1174 25.7574 31.2426C26.8826 32.3679 28.4087 33 30 33C31.5913 33 33.1174 32.3679 34.2426 31.2426C35.3679 30.1174 36 28.5913 36 27C36 25.4087 35.3679 23.8826 34.2426 22.7574C33.1174 21.6321 31.5913 21 30 21C28.4087 21 26.8826 21.6321 25.7574 22.7574C24.6321 23.8826 24 25.4087 24 27Z" stroke="#DED0BF" stroke-width="2" stroke-linecap="round" stroke-linejoin="round"/>
<path d="M30.0003 33L33.4003 38.89L34.9983 35.657L38.5963 35.889L35.1963 30M24.8023 30L21.4023 35.89L25.0003 35.657L26.5983 38.889L29.9983 33" stroke="#DED0BF" stroke-width="2" stroke-linecap="round" stroke-linejoin="round"/>
</g>
<defs>
<clipPath id="clip0_640_362">
<rect width="60" height="60" fill="white"/>
</clipPath>
</defs>
</svg>
