<svg width="60" height="60" viewBox="0 0 60 60" fill="none" xmlns="http://www.w3.org/2000/svg">
<g clip-path="url(#clip0_640_317)">
<path d="M60 30C60 13.4315 46.5685 0 30 0C13.4315 0 0 13.4315 0 30C0 46.5685 13.4315 60 30 60C46.5685 60 60 46.5685 60 30Z" fill="#173537"/>
<path d="M23.251 23.25C22.33 21.924 23.14 20.307 24.538 19.5L30.001 28.839L35.464 19.5C36.862 20.307 37.672 21.924 36.751 23.25L31.216 30.915L33.55 34.9065C34.377 34.4853 35.3309 34.3857 36.2271 34.627C37.1233 34.8683 37.8981 35.4334 38.4018 36.213C38.9055 36.9926 39.1021 37.9312 38.9538 38.8474C38.8054 39.7636 38.3226 40.5922 37.5987 41.173C36.8747 41.7538 35.9611 42.0455 35.0346 41.9917C34.108 41.9379 33.2343 41.5424 32.5825 40.8817C31.9307 40.221 31.547 39.342 31.5057 38.4148C31.4644 37.4876 31.7685 36.578 32.359 35.862L30.001 32.595L27.643 35.8605C28.2335 36.5765 28.5376 37.4861 28.4963 38.4133C28.455 39.3405 28.0714 40.2195 27.4195 40.8802C26.7677 41.5409 25.894 41.9364 24.9675 41.9902C24.0409 42.044 23.1273 41.7523 22.4034 41.1715C21.6794 40.5907 21.1966 39.7621 21.0482 38.8459C20.8999 37.9297 21.0965 36.9911 21.6002 36.2115C22.1039 35.4319 22.8787 34.8668 23.7749 34.6255C24.6711 34.3842 25.625 34.4838 26.452 34.905L28.786 30.915L23.251 23.25ZM27.001 38.25C27.001 37.6533 26.764 37.081 26.342 36.659C25.92 36.2371 25.3477 36 24.751 36C24.1543 36 23.582 36.2371 23.16 36.659C22.7381 37.081 22.501 37.6533 22.501 38.25C22.501 38.8467 22.7381 39.419 23.16 39.841C23.582 40.2629 24.1543 40.5 24.751 40.5C25.3477 40.5 25.92 40.2629 26.342 39.841C26.764 39.419 27.001 38.8467 27.001 38.25ZM37.501 38.25C37.501 37.6533 37.264 37.081 36.842 36.659C36.42 36.2371 35.8477 36 35.251 36C34.6543 36 34.082 36.2371 33.66 36.659C33.2381 37.081 33.001 37.6533 33.001 38.25C33.001 38.8467 33.2381 39.419 33.66 39.841C34.082 40.2629 34.6543 40.5 35.251 40.5C35.8477 40.5 36.42 40.2629 36.842 39.841C37.264 39.419 37.501 38.8467 37.501 38.25Z" fill="#DED0BF"/>
</g>
<defs>
<clipPath id="clip0_640_317">
<rect width="60" height="60" fill="white"/>
</clipPath>
</defs>
</svg>
