<svg width="60" height="60" viewBox="0 0 60 60" fill="none" xmlns="http://www.w3.org/2000/svg">
<g clip-path="url(#clip0_650_406)">
<path d="M60 30C60 13.4315 46.5685 0 30 0C13.4315 0 0 13.4315 0 30C0 46.5685 13.4315 60 30 60C46.5685 60 60 46.5685 60 30Z" fill="#173537"/>
<path d="M39.8202 33.4201L37.3202 37.7501C36.8302 38.6101 35.9202 39.0601 35.0002 39.0001H33.0002V41.0001L30.5002 36.5001L33.0002 32.0001V34.0001H35.8202L33.6002 30.1501L37.9302 27.6501L39.7302 30.7701C40.2502 31.5401 40.3202 32.5701 39.8202 33.4201ZM27.2102 21.0601H32.2102C33.1902 21.0601 34.0402 21.6301 34.4502 22.4501L35.4502 24.1901L37.1802 23.1901L34.5402 27.6001L29.3902 27.6901L31.1202 26.6901L29.7102 24.2401L27.5002 28.0901L23.1602 25.5901L24.9602 22.4701C25.3702 21.6401 26.2202 21.0601 27.2102 21.0601ZM23.0502 37.7601L20.5502 33.4301C20.0602 32.5801 20.1302 31.5601 20.6402 30.7901L21.6402 29.0601L19.9102 28.0601L25.0502 28.1401L27.7002 32.5601L25.9702 31.5601L24.5602 34.0001H29.0002V39.0001H25.4002C24.9317 39.034 24.4631 38.9357 24.0476 38.7165C23.6322 38.4973 23.2866 38.1659 23.0502 37.7601Z" fill="#DED0BF"/>
</g>
<defs>
<clipPath id="clip0_650_406">
<rect width="60" height="60" fill="white"/>
</clipPath>
</defs>
</svg>
