<svg width="60" height="60" viewBox="0 0 60 60" fill="none" xmlns="http://www.w3.org/2000/svg">
<g clip-path="url(#clip0_640_320)">
<path d="M60 30C60 13.4315 46.5685 0 30 0C13.4315 0 0 13.4315 0 30C0 46.5685 13.4315 60 30 60C46.5685 60 60 46.5685 60 30Z" fill="#173537"/>
<g clip-path="url(#clip1_640_320)">
<path d="M33.579 32.754C33.1897 32.1376 32.9885 31.421 33 30.692C33.0116 29.963 33.2354 29.2532 33.6441 28.6494C34.0528 28.0456 34.6287 27.5741 35.3012 27.2925C35.9737 27.0109 36.7137 26.9314 37.4307 27.0639C38.1477 27.1963 38.8105 27.5349 39.338 28.0381C39.8656 28.5414 40.235 29.1875 40.401 29.8975C40.567 30.6074 40.5225 31.3504 40.2729 32.0354C40.0233 32.7204 39.5794 33.3178 38.9955 33.7545C40.818 34.7595 42 36.69 42 39V41.25C42 41.4489 41.921 41.6397 41.7803 41.7803C41.6397 41.921 41.4489 42 41.25 42C41.0511 42 40.8603 41.921 40.7197 41.7803C40.579 41.6397 40.5 41.4489 40.5 41.25V39C40.5 36.414 38.586 34.5 36 34.5C34.635 34.5 34.053 34.47 33.2925 34.317C31.4175 33.936 29.793 32.817 27.915 30.468C27.8479 30.3918 27.797 30.3029 27.7654 30.2065C27.7337 30.1101 27.7219 30.0082 27.7307 29.9072C27.7396 29.8061 27.7688 29.7078 27.8167 29.6184C27.8646 29.5289 27.9301 29.4501 28.0094 29.3867C28.0886 29.3233 28.1799 29.2767 28.2777 29.2496C28.3755 29.2225 28.4777 29.2155 28.5783 29.2291C28.6788 29.2427 28.7756 29.2766 28.8627 29.3286C28.9498 29.3807 29.0254 29.4499 29.085 29.532C30.435 31.218 31.5645 32.142 32.736 32.5965C32.9685 32.6745 33.2535 32.721 33.579 32.754ZM36.2565 32.946C36.3815 32.961 36.507 32.978 36.633 32.997L36.75 33C37.3252 32.9987 37.878 32.7772 38.2949 32.381C38.7118 31.9849 38.9612 31.444 38.9918 30.8697C39.0224 30.2954 38.8319 29.7311 38.4594 29.2929C38.0869 28.8546 37.5608 28.5756 36.989 28.5133C36.4173 28.4509 35.8433 28.6099 35.3851 28.9575C34.9269 29.3051 34.6192 29.815 34.5252 30.3824C34.4313 30.9499 34.5582 31.5317 34.8799 32.0085C35.2016 32.4853 35.6952 32.8207 36.2565 32.946ZM32.67 35.955C32.8689 35.955 33.0597 36.034 33.2003 36.1747C33.341 36.3153 33.42 36.5061 33.42 36.705C33.4088 36.8231 33.3836 36.9394 33.345 37.0515C33.0765 37.6215 33 38.2125 33 39.0045V41.2545C33 41.4534 32.921 41.6442 32.7803 41.7848C32.6397 41.9255 32.4489 42.0045 32.25 42.0045C32.0511 42.0045 31.8603 41.9255 31.7197 41.7848C31.579 41.6442 31.5 41.4534 31.5 41.2545V39.0045C31.5 38.019 31.608 37.2255 31.9605 36.4605C32.0114 36.3129 32.1071 36.1848 32.2343 36.0942C32.3615 36.0036 32.5138 35.9549 32.67 35.955ZM26.937 26.658C27.054 26.8138 27.1058 27.009 27.0815 27.2023C27.0571 27.3957 26.9584 27.5719 26.8063 27.6938C26.6543 27.8156 26.4608 27.8735 26.2668 27.8551C26.0728 27.8368 25.8935 27.7437 25.767 27.5955L22.665 23.718C22.5979 23.6418 22.547 23.5529 22.5154 23.4565C22.4837 23.3601 22.4719 23.2582 22.4807 23.1572C22.4896 23.0561 22.5188 22.9578 22.5667 22.8684C22.6146 22.7789 22.6801 22.7001 22.7594 22.6367C22.8386 22.5733 22.9299 22.5267 23.0277 22.4996C23.1255 22.4725 23.2277 22.4655 23.3283 22.4791C23.4288 22.4927 23.5256 22.5266 23.6127 22.5786C23.6998 22.6307 23.7754 22.6999 23.835 22.782L26.937 26.658ZM19.5 34.5H27.75C27.9489 34.5 28.1397 34.579 28.2803 34.7197C28.421 34.8603 28.5 35.0511 28.5 35.25C28.5 35.4489 28.421 35.6397 28.2803 35.7803C28.1397 35.921 27.9489 36 27.75 36H18.75C18.5511 36 18.3603 35.921 18.2197 35.7803C18.079 35.6397 18 35.4489 18 35.25V18.75C18 18.5511 18.079 18.3603 18.2197 18.2197C18.3603 18.079 18.5511 18 18.75 18H36.75C36.9489 18 37.1397 18.079 37.2803 18.2197C37.421 18.3603 37.5 18.5511 37.5 18.75V23.25C37.5 23.4489 37.421 23.6397 37.2803 23.7803C37.1397 23.921 36.9489 24 36.75 24C36.5511 24 36.3603 23.921 36.2197 23.7803C36.079 23.6397 36 23.4489 36 23.25V19.5H19.5V34.5Z" fill="#DED0BF"/>
</g>
</g>
<defs>
<clipPath id="clip0_640_320">
<rect width="60" height="60" fill="white"/>
</clipPath>
<clipPath id="clip1_640_320">
<rect width="24" height="24" fill="white" transform="translate(18 18)"/>
</clipPath>
</defs>
</svg>
