<svg width="60" height="60" viewBox="0 0 60 60" fill="none" xmlns="http://www.w3.org/2000/svg">
<rect width="60" height="60" rx="30" fill="#142D48"/>
<path d="M25.3334 30.6667L28.6667 34.0001L34.6667 28.0001M33.8734 20.6507L33.2334 19.7721C32.8622 19.2624 32.3759 18.8478 31.8139 18.5619C31.252 18.276 30.6305 18.127 30.0001 18.127C29.3696 18.127 28.7481 18.276 28.1862 18.5619C27.6243 18.8478 27.1379 19.2624 26.7667 19.7721L26.1267 20.6507L25.0547 20.4814C24.4318 20.3833 23.7945 20.4339 23.1949 20.6291C22.5952 20.8242 22.0502 21.1584 21.6043 21.6043C21.1584 22.0502 20.8242 22.5952 20.6291 23.1949C20.4339 23.7945 20.3833 24.4318 20.4814 25.0547L20.6507 26.1267L19.7721 26.7667C19.2624 27.1379 18.8478 27.6243 18.5619 28.1862C18.276 28.7481 18.127 29.3696 18.127 30.0001C18.127 30.6305 18.276 31.252 18.5619 31.8139C18.8478 32.3759 19.2624 32.8622 19.7721 33.2334L20.6507 33.8734L20.4814 34.9454C20.3833 35.5683 20.4339 36.2056 20.6291 36.8052C20.8242 37.4049 21.1584 37.9499 21.6043 38.3958C22.0502 38.8417 22.5952 39.1759 23.1949 39.371C23.7945 39.5662 24.4318 39.6168 25.0547 39.5187L26.1267 39.3494L26.7667 40.2281C27.1379 40.7377 27.6243 41.1523 28.1862 41.4382C28.7481 41.7241 29.3696 41.8732 30.0001 41.8732C30.6305 41.8732 31.252 41.7241 31.8139 41.4382C32.3759 41.1523 32.8622 40.7377 33.2334 40.2281L33.8734 39.3494L34.9454 39.5187C35.5683 39.6168 36.2056 39.5662 36.8052 39.371C37.4049 39.1759 37.9499 38.8417 38.3958 38.3958C38.8417 37.9499 39.1759 37.4049 39.371 36.8052C39.5662 36.2056 39.6168 35.5683 39.5187 34.9454L39.3494 33.8734L40.2281 33.2334C40.7377 32.8622 41.1523 32.3759 41.4382 31.8139C41.7241 31.252 41.8732 30.6305 41.8732 30.0001C41.8732 29.3696 41.7241 28.7481 41.4382 28.1862C41.1523 27.6243 40.7377 27.1379 40.2281 26.7667L39.3494 26.1267L39.5187 25.0547C39.6168 24.4318 39.5662 23.7945 39.371 23.1949C39.1759 22.5952 38.8417 22.0502 38.3958 21.6043C37.9499 21.1584 37.4049 20.8242 36.8052 20.6291C36.2056 20.4339 35.5683 20.3833 34.9454 20.4814L33.8734 20.6507Z" stroke="white" stroke-width="2" stroke-linecap="round" stroke-linejoin="round"/>
</svg>
