<svg width="60" height="60" viewBox="0 0 60 60" fill="none" xmlns="http://www.w3.org/2000/svg">
<rect width="60" height="60" rx="30" fill="#142D48"/>
<path d="M41.9977 30.6667L42.0003 29.3334C42.0003 23.3627 42.0003 20.3761 40.1457 18.5214C38.291 16.6667 35.3057 16.6667 29.3337 16.6667C23.363 16.6667 20.3763 16.6667 18.5217 18.5214C16.667 20.3761 16.667 23.3614 16.667 29.3334C16.667 35.3041 16.667 38.2907 18.5217 40.1454C20.3763 42.0001 23.3617 42.0001 29.3337 42.0001C30.0403 42.0001 30.667 41.9974 30.667 41.9974M16.667 23.3334H42.0003M27.3337 35.3334H29.3337M22.0003 35.3334H23.3337M27.3337 30.0001H35.3337M22.0003 30.0001H23.3337M34.0003 38.6667H43.3337M38.667 43.3334V34.0001" stroke="white" stroke-width="2" stroke-linecap="round" stroke-linejoin="round"/>
</svg>
