<svg width="60" height="60" viewBox="0 0 60 60" fill="none" xmlns="http://www.w3.org/2000/svg">
<g clip-path="url(#clip0_650_414)">
<path d="M60 30C60 13.4315 46.5685 0 30 0C13.4315 0 0 13.4315 0 30C0 46.5685 13.4315 60 30 60C46.5685 60 60 46.5685 60 30Z" fill="#173537"/>
<path d="M28.9988 24.0001H31.9988L35.2888 20.7001C35.3817 20.6064 35.4923 20.532 35.6142 20.4812C35.736 20.4304 35.8667 20.4043 35.9988 20.4043C36.1308 20.4043 36.2615 20.4304 36.3833 20.4812C36.5052 20.532 36.6158 20.6064 36.7088 20.7001L39.2888 23.2901C39.475 23.4775 39.5796 23.7309 39.5796 23.9951C39.5796 24.2593 39.475 24.5127 39.2888 24.7001L36.9988 27.0001H28.9988V29.0001C28.9988 29.2653 28.8934 29.5197 28.7059 29.7072C28.5183 29.8947 28.264 30.0001 27.9988 30.0001C27.7335 30.0001 27.4792 29.8947 27.2917 29.7072C27.1041 29.5197 26.9988 29.2653 26.9988 29.0001V26.0001C26.9988 25.4697 27.2095 24.961 27.5845 24.5859C27.9596 24.2108 28.4683 24.0001 28.9988 24.0001ZM22.9988 29.0001V33.0001L20.7088 35.2901C20.5225 35.4775 20.418 35.7309 20.418 35.9951C20.418 36.2593 20.5225 36.5127 20.7088 36.7001L23.2888 39.2901C23.3817 39.3838 23.4923 39.4582 23.6142 39.509C23.736 39.5598 23.8667 39.5859 23.9988 39.5859C24.1308 39.5859 24.2615 39.5598 24.3833 39.509C24.5052 39.4582 24.6158 39.3838 24.7088 39.2901L28.9988 35.0001H32.9988C33.264 35.0001 33.5183 34.8947 33.7059 34.7072C33.8934 34.5197 33.9988 34.2653 33.9988 34.0001V33.0001H34.9988C35.264 33.0001 35.5183 32.8947 35.7059 32.7072C35.8934 32.5197 35.9988 32.2653 35.9988 32.0001V31.0001H36.9988C37.264 31.0001 37.5183 30.8947 37.7059 30.7072C37.8934 30.5197 37.9988 30.2653 37.9988 30.0001V29.0001H30.9988V30.0001C30.9988 30.5305 30.788 31.0392 30.413 31.4143C30.0379 31.7894 29.5292 32.0001 28.9988 32.0001H26.9988C26.4683 32.0001 25.9596 31.7894 25.5845 31.4143C25.2095 31.0392 24.9988 30.5305 24.9988 30.0001V27.0001L22.9988 29.0001Z" fill="#DED0BF"/>
</g>
<defs>
<clipPath id="clip0_650_414">
<rect width="60" height="60" fill="white"/>
</clipPath>
</defs>
</svg>
