<svg width="60" height="60" viewBox="0 0 60 60" fill="none" xmlns="http://www.w3.org/2000/svg">
<g clip-path="url(#clip0_650_402)">
<path d="M60 30C60 13.4315 46.5685 0 30 0C13.4315 0 0 13.4315 0 30C0 46.5685 13.4315 60 30 60C46.5685 60 60 46.5685 60 30Z" fill="#173537"/>
<path d="M37.8999 22.0987C37.1967 21.3957 36.243 21.0007 35.2487 21.0007C34.2543 21.0007 33.3007 21.3957 32.5974 22.0987L30.3474 24.3487C30.2378 24.4582 30.1647 24.5991 30.1384 24.7518C29.3134 29.5574 21.3737 37.5684 21.2199 37.7184C21.0792 37.859 21.0001 38.0497 21 38.2487C20.9999 38.4476 21.0789 38.6384 21.2195 38.7792C21.3601 38.9199 21.5508 38.999 21.7498 38.9991C21.9487 38.9992 22.1395 38.9202 22.2802 38.7796C22.3609 38.6981 30.4206 30.6881 35.2477 29.8593C35.4005 29.833 35.5413 29.7599 35.6509 29.6502L37.9009 27.4002C38.6039 26.697 38.9988 25.7434 38.9988 24.749C38.9988 23.7546 38.6039 22.801 37.9009 22.0977L37.8999 22.0987ZM35.7793 25.2806L34.2793 26.7806C34.1386 26.9213 33.9477 27.0003 33.7487 27.0003C33.5497 27.0003 33.3588 26.9213 33.2181 26.7806C33.0773 26.6398 32.9983 26.449 32.9983 26.2499C32.9983 26.0509 33.0773 25.86 33.2181 25.7193L34.7181 24.2193C34.8588 24.0786 35.0497 23.9995 35.2487 23.9995C35.4477 23.9995 35.6386 24.0786 35.7793 24.2193C35.92 24.36 35.9991 24.5509 35.9991 24.7499C35.9991 24.949 35.92 25.1398 35.7793 25.2806Z" fill="#DED0BF"/>
</g>
<defs>
<clipPath id="clip0_650_402">
<rect width="60" height="60" fill="white"/>
</clipPath>
</defs>
</svg>
